<mxfile host="www.draw.io" modified="2020-02-25T06:41:57.291Z" agent="Mozilla/5.0 (Windows NT 6.1; Win64; x64) AppleWebKit/537.36 (KHTML, like Gecko) Chrome/76.0.3809.100 Safari/537.36" etag="UOUZVTY2MZi1f3XqUe3Y" version="12.7.4" type="github">
  <diagram id="XxnFwEdTUzF4qKP4l456" name="第 1 页">
    <mxGraphModel dx="2141" dy="788" grid="1" gridSize="10" guides="1" tooltips="1" connect="1" arrows="1" fold="1" page="1" pageScale="1" pageWidth="827" pageHeight="1169" math="0" shadow="0">
      <root>
        <mxCell id="0" />
        <mxCell id="1" parent="0" />
        <mxCell id="Yp-tVhfb5bwSeliUDnba-4" value="" style="edgeStyle=orthogonalEdgeStyle;rounded=0;orthogonalLoop=1;jettySize=auto;html=1;" edge="1" parent="1" source="Yp-tVhfb5bwSeliUDnba-1" target="Yp-tVhfb5bwSeliUDnba-3">
          <mxGeometry relative="1" as="geometry" />
        </mxCell>
        <mxCell id="Yp-tVhfb5bwSeliUDnba-1" value="readVersionPower&lt;br&gt;读取蓝牙数据" style="rounded=1;whiteSpace=wrap;html=1;" vertex="1" parent="1">
          <mxGeometry x="354" y="190" width="120" height="60" as="geometry" />
        </mxCell>
        <mxCell id="Yp-tVhfb5bwSeliUDnba-7" value="" style="edgeStyle=orthogonalEdgeStyle;rounded=0;orthogonalLoop=1;jettySize=auto;html=1;" edge="1" parent="1" source="Yp-tVhfb5bwSeliUDnba-3" target="Yp-tVhfb5bwSeliUDnba-5">
          <mxGeometry relative="1" as="geometry" />
        </mxCell>
        <mxCell id="Yp-tVhfb5bwSeliUDnba-3" value="readVersionPower(final long timeout, ReadVersionPowerCallback callback)&lt;br&gt;回调" style="rounded=1;whiteSpace=wrap;html=1;" vertex="1" parent="1">
          <mxGeometry x="246" y="290" width="336" height="60" as="geometry" />
        </mxCell>
        <mxCell id="Yp-tVhfb5bwSeliUDnba-5" value="REMOTE_OAD_OPERATION_BROADCAST&lt;br&gt;注册蓝牙：读取其他地方传输的数据与电量" style="rounded=0;whiteSpace=wrap;html=1;" vertex="1" parent="1">
          <mxGeometry x="289" y="400" width="249" height="60" as="geometry" />
        </mxCell>
        <mxCell id="Yp-tVhfb5bwSeliUDnba-9" style="edgeStyle=orthogonalEdgeStyle;rounded=0;orthogonalLoop=1;jettySize=auto;html=1;entryX=1.004;entryY=0.65;entryDx=0;entryDy=0;entryPerimeter=0;" edge="1" parent="1" source="Yp-tVhfb5bwSeliUDnba-8" target="Yp-tVhfb5bwSeliUDnba-5">
          <mxGeometry relative="1" as="geometry">
            <Array as="points">
              <mxPoint x="770" y="439" />
            </Array>
          </mxGeometry>
        </mxCell>
        <mxCell id="Yp-tVhfb5bwSeliUDnba-10" value="数据失败" style="text;html=1;align=center;verticalAlign=middle;resizable=0;points=[];labelBackgroundColor=#ffffff;" vertex="1" connectable="0" parent="Yp-tVhfb5bwSeliUDnba-9">
          <mxGeometry x="0.1875" y="4" relative="1" as="geometry">
            <mxPoint as="offset" />
          </mxGeometry>
        </mxCell>
        <mxCell id="Yp-tVhfb5bwSeliUDnba-8" value="ACTION_ACL_DISCONNECTED&lt;br&gt;蓝牙断掉&lt;br&gt;mBluetoothLeService.close()&lt;br&gt;callbackFail" style="rounded=0;whiteSpace=wrap;html=1;" vertex="1" parent="1">
          <mxGeometry x="660" y="290" width="220" height="60" as="geometry" />
        </mxCell>
        <mxCell id="Yp-tVhfb5bwSeliUDnba-12" style="edgeStyle=orthogonalEdgeStyle;rounded=0;orthogonalLoop=1;jettySize=auto;html=1;" edge="1" parent="1" source="Yp-tVhfb5bwSeliUDnba-11" target="Yp-tVhfb5bwSeliUDnba-5">
          <mxGeometry relative="1" as="geometry">
            <Array as="points">
              <mxPoint x="80" y="430" />
            </Array>
          </mxGeometry>
        </mxCell>
        <mxCell id="Yp-tVhfb5bwSeliUDnba-11" value="bluetoothTimerTickHandle&lt;br&gt;版本电量的读取命令下发与接收" style="rounded=0;whiteSpace=wrap;html=1;" vertex="1" parent="1">
          <mxGeometry x="-10" y="290" width="180" height="60" as="geometry" />
        </mxCell>
        <mxCell id="Yp-tVhfb5bwSeliUDnba-15" value="" style="edgeStyle=orthogonalEdgeStyle;rounded=0;orthogonalLoop=1;jettySize=auto;html=1;" edge="1" parent="1" source="Yp-tVhfb5bwSeliUDnba-13" target="Yp-tVhfb5bwSeliUDnba-14">
          <mxGeometry relative="1" as="geometry" />
        </mxCell>
        <mxCell id="Yp-tVhfb5bwSeliUDnba-13" value="BluetoothLeService&lt;br&gt;onBind方法中执行&lt;br&gt;initData" style="rounded=0;whiteSpace=wrap;html=1;" vertex="1" parent="1">
          <mxGeometry x="20" y="110" width="120" height="60" as="geometry" />
        </mxCell>
        <mxCell id="Yp-tVhfb5bwSeliUDnba-17" style="edgeStyle=orthogonalEdgeStyle;rounded=0;orthogonalLoop=1;jettySize=auto;html=1;" edge="1" parent="1" source="Yp-tVhfb5bwSeliUDnba-14" target="Yp-tVhfb5bwSeliUDnba-11">
          <mxGeometry relative="1" as="geometry" />
        </mxCell>
        <mxCell id="Yp-tVhfb5bwSeliUDnba-14" value="ServiceTimer.schedule&lt;br&gt;定时器执行&lt;br&gt;mServiceTimerhandler发出1的Message" style="rounded=0;whiteSpace=wrap;html=1;" vertex="1" parent="1">
          <mxGeometry x="20" y="200" width="120" height="60" as="geometry" />
        </mxCell>
        <mxCell id="Yp-tVhfb5bwSeliUDnba-20" style="edgeStyle=orthogonalEdgeStyle;rounded=0;orthogonalLoop=1;jettySize=auto;html=1;" edge="1" parent="1" source="Yp-tVhfb5bwSeliUDnba-18" target="Yp-tVhfb5bwSeliUDnba-11">
          <mxGeometry relative="1" as="geometry" />
        </mxCell>
        <mxCell id="Yp-tVhfb5bwSeliUDnba-18" value="读取遥控器版本，电量&lt;br&gt;readRemoteVersionPower&lt;br&gt;mBluetoothGatt&amp;amp;&amp;amp;&lt;br&gt;mVendorInCharacteristic不为空&lt;br&gt;mBleOperationType=0时候&lt;br&gt;mBleOperationTick=10" style="rounded=0;whiteSpace=wrap;html=1;" vertex="1" parent="1">
          <mxGeometry x="-290" y="270" width="180" height="100" as="geometry" />
        </mxCell>
      </root>
    </mxGraphModel>
  </diagram>
</mxfile>
